<mxfile host="app.diagrams.net" modified="2023-04-28T09:00:48.241Z" agent="Mozilla/5.0 (Windows NT 10.0; Win64; x64) AppleWebKit/537.36 (KHTML, like Gecko) Chrome/112.0.0.0 Safari/537.36 Edg/112.0.1722.58" etag="IOuBfoqTvL7Mc2keVVEO" version="21.2.3" type="github">
  <diagram id="C5RBs43oDa-KdzZeNtuy" name="Page-1">
    <mxGraphModel dx="3664" dy="2829" grid="1" gridSize="10" guides="1" tooltips="1" connect="1" arrows="1" fold="1" page="1" pageScale="1" pageWidth="827" pageHeight="1169" math="0" shadow="0">
      <root>
        <mxCell id="WIyWlLk6GJQsqaUBKTNV-0" />
        <mxCell id="WIyWlLk6GJQsqaUBKTNV-1" parent="WIyWlLk6GJQsqaUBKTNV-0" />
        <mxCell id="dyF_wPC1HJIjlOY9AC5u-62" value="" style="rounded=0;whiteSpace=wrap;html=1;fillColor=none;" vertex="1" parent="WIyWlLk6GJQsqaUBKTNV-1">
          <mxGeometry x="390" y="-150" width="470" height="530" as="geometry" />
        </mxCell>
        <mxCell id="dyF_wPC1HJIjlOY9AC5u-81" value="" style="rounded=0;whiteSpace=wrap;html=1;fillColor=none;dashed=1;" vertex="1" parent="WIyWlLk6GJQsqaUBKTNV-1">
          <mxGeometry x="1260" y="-160" width="200" height="530" as="geometry" />
        </mxCell>
        <mxCell id="dyF_wPC1HJIjlOY9AC5u-80" value="" style="rounded=0;whiteSpace=wrap;html=1;fillColor=none;dashed=1;" vertex="1" parent="WIyWlLk6GJQsqaUBKTNV-1">
          <mxGeometry x="910" y="-160" width="200" height="530" as="geometry" />
        </mxCell>
        <mxCell id="dyF_wPC1HJIjlOY9AC5u-2" value="" style="rounded=0;whiteSpace=wrap;html=1;allowArrows=1;fillColor=none;" vertex="1" parent="WIyWlLk6GJQsqaUBKTNV-1">
          <mxGeometry x="-40" y="10" width="380" height="370" as="geometry" />
        </mxCell>
        <mxCell id="dyF_wPC1HJIjlOY9AC5u-3" style="edgeStyle=orthogonalEdgeStyle;rounded=0;orthogonalLoop=1;jettySize=auto;html=1;entryX=0.5;entryY=0;entryDx=0;entryDy=0;" edge="1" parent="WIyWlLk6GJQsqaUBKTNV-1" source="dyF_wPC1HJIjlOY9AC5u-4" target="dyF_wPC1HJIjlOY9AC5u-8">
          <mxGeometry relative="1" as="geometry" />
        </mxCell>
        <mxCell id="dyF_wPC1HJIjlOY9AC5u-4" value="Demande&lt;br&gt;Choix du type I or O et de la voie" style="rounded=0;whiteSpace=wrap;html=1;" vertex="1" parent="WIyWlLk6GJQsqaUBKTNV-1">
          <mxGeometry x="630" y="23" width="180" height="65" as="geometry" />
        </mxCell>
        <mxCell id="dyF_wPC1HJIjlOY9AC5u-72" style="edgeStyle=orthogonalEdgeStyle;rounded=0;orthogonalLoop=1;jettySize=auto;html=1;entryX=0.5;entryY=0;entryDx=0;entryDy=0;" edge="1" parent="WIyWlLk6GJQsqaUBKTNV-1" source="dyF_wPC1HJIjlOY9AC5u-6" target="dyF_wPC1HJIjlOY9AC5u-65">
          <mxGeometry relative="1" as="geometry">
            <Array as="points">
              <mxPoint x="720" y="340" />
              <mxPoint x="830" y="340" />
              <mxPoint x="830" y="-90" />
              <mxPoint x="500" y="-90" />
            </Array>
          </mxGeometry>
        </mxCell>
        <mxCell id="dyF_wPC1HJIjlOY9AC5u-6" value="Demande&lt;br&gt;Calibration de la voie&lt;br&gt;boucle sur N points de mesure&amp;nbsp;" style="rounded=0;whiteSpace=wrap;html=1;" vertex="1" parent="WIyWlLk6GJQsqaUBKTNV-1">
          <mxGeometry x="630" y="220" width="180" height="65" as="geometry" />
        </mxCell>
        <mxCell id="dyF_wPC1HJIjlOY9AC5u-7" style="edgeStyle=orthogonalEdgeStyle;rounded=0;orthogonalLoop=1;jettySize=auto;html=1;" edge="1" parent="WIyWlLk6GJQsqaUBKTNV-1" source="dyF_wPC1HJIjlOY9AC5u-8" target="dyF_wPC1HJIjlOY9AC5u-6">
          <mxGeometry relative="1" as="geometry" />
        </mxCell>
        <mxCell id="dyF_wPC1HJIjlOY9AC5u-8" value="Demande&lt;br&gt;Message de description du materiel (tension min max etc)" style="rounded=0;whiteSpace=wrap;html=1;" vertex="1" parent="WIyWlLk6GJQsqaUBKTNV-1">
          <mxGeometry x="630" y="120" width="180" height="60" as="geometry" />
        </mxCell>
        <mxCell id="dyF_wPC1HJIjlOY9AC5u-9" value="" style="edgeStyle=orthogonalEdgeStyle;rounded=0;orthogonalLoop=1;jettySize=auto;html=1;" edge="1" parent="WIyWlLk6GJQsqaUBKTNV-1" source="dyF_wPC1HJIjlOY9AC5u-11" target="dyF_wPC1HJIjlOY9AC5u-14">
          <mxGeometry relative="1" as="geometry" />
        </mxCell>
        <mxCell id="dyF_wPC1HJIjlOY9AC5u-10" style="edgeStyle=orthogonalEdgeStyle;rounded=0;orthogonalLoop=1;jettySize=auto;html=1;entryX=0.5;entryY=1;entryDx=0;entryDy=0;" edge="1" parent="WIyWlLk6GJQsqaUBKTNV-1" source="dyF_wPC1HJIjlOY9AC5u-11" target="dyF_wPC1HJIjlOY9AC5u-26">
          <mxGeometry relative="1" as="geometry" />
        </mxCell>
        <mxCell id="dyF_wPC1HJIjlOY9AC5u-11" value="Tant que c est invalide&amp;nbsp;" style="rhombus;whiteSpace=wrap;html=1;" vertex="1" parent="WIyWlLk6GJQsqaUBKTNV-1">
          <mxGeometry x="55" y="185" width="110" height="90" as="geometry" />
        </mxCell>
        <mxCell id="dyF_wPC1HJIjlOY9AC5u-12" style="edgeStyle=orthogonalEdgeStyle;rounded=0;orthogonalLoop=1;jettySize=auto;html=1;" edge="1" parent="WIyWlLk6GJQsqaUBKTNV-1" source="dyF_wPC1HJIjlOY9AC5u-13" target="dyF_wPC1HJIjlOY9AC5u-11">
          <mxGeometry relative="1" as="geometry" />
        </mxCell>
        <mxCell id="dyF_wPC1HJIjlOY9AC5u-13" value="Demande de réponse&amp;nbsp;" style="rounded=0;whiteSpace=wrap;html=1;" vertex="1" parent="WIyWlLk6GJQsqaUBKTNV-1">
          <mxGeometry x="50" y="90" width="120" height="50" as="geometry" />
        </mxCell>
        <mxCell id="dyF_wPC1HJIjlOY9AC5u-14" value="Envois de la saisi (récap de ce qu&#39;il a choisit )" style="rounded=0;whiteSpace=wrap;html=1;" vertex="1" parent="WIyWlLk6GJQsqaUBKTNV-1">
          <mxGeometry x="50" y="300" width="120" height="60" as="geometry" />
        </mxCell>
        <mxCell id="dyF_wPC1HJIjlOY9AC5u-23" value="Chaque demande&amp;nbsp;" style="text;html=1;align=center;verticalAlign=middle;resizable=0;points=[];autosize=1;strokeColor=none;fillColor=none;" vertex="1" parent="WIyWlLk6GJQsqaUBKTNV-1">
          <mxGeometry x="-30" y="18" width="120" height="30" as="geometry" />
        </mxCell>
        <mxCell id="dyF_wPC1HJIjlOY9AC5u-25" style="edgeStyle=orthogonalEdgeStyle;rounded=0;orthogonalLoop=1;jettySize=auto;html=1;exitX=0.5;exitY=0;exitDx=0;exitDy=0;entryX=0.5;entryY=0;entryDx=0;entryDy=0;" edge="1" parent="WIyWlLk6GJQsqaUBKTNV-1" source="dyF_wPC1HJIjlOY9AC5u-26" target="dyF_wPC1HJIjlOY9AC5u-13">
          <mxGeometry relative="1" as="geometry">
            <Array as="points">
              <mxPoint x="240" y="60" />
              <mxPoint x="110" y="60" />
            </Array>
          </mxGeometry>
        </mxCell>
        <mxCell id="dyF_wPC1HJIjlOY9AC5u-26" value="Retourne menu si touche esc" style="rounded=0;whiteSpace=wrap;html=1;" vertex="1" parent="WIyWlLk6GJQsqaUBKTNV-1">
          <mxGeometry x="180" y="150" width="120" height="60" as="geometry" />
        </mxCell>
        <mxCell id="dyF_wPC1HJIjlOY9AC5u-29" value="" style="endArrow=none;dashed=1;html=1;dashPattern=1 3;strokeWidth=2;rounded=0;entryX=1;entryY=0.5;entryDx=0;entryDy=0;exitX=0;exitY=0.5;exitDx=0;exitDy=0;" edge="1" parent="WIyWlLk6GJQsqaUBKTNV-1" source="dyF_wPC1HJIjlOY9AC5u-4" target="dyF_wPC1HJIjlOY9AC5u-2">
          <mxGeometry width="50" height="50" relative="1" as="geometry">
            <mxPoint x="280" y="60" as="sourcePoint" />
            <mxPoint x="470" y="260" as="targetPoint" />
            <Array as="points">
              <mxPoint x="600" y="56" />
              <mxPoint x="600" y="120" />
            </Array>
          </mxGeometry>
        </mxCell>
        <mxCell id="dyF_wPC1HJIjlOY9AC5u-30" value="" style="endArrow=none;dashed=1;html=1;dashPattern=1 3;strokeWidth=2;rounded=0;exitX=0;exitY=0.5;exitDx=0;exitDy=0;entryX=1;entryY=0.5;entryDx=0;entryDy=0;" edge="1" parent="WIyWlLk6GJQsqaUBKTNV-1" source="dyF_wPC1HJIjlOY9AC5u-8" target="dyF_wPC1HJIjlOY9AC5u-2">
          <mxGeometry width="50" height="50" relative="1" as="geometry">
            <mxPoint x="300" y="80" as="sourcePoint" />
            <mxPoint x="410" y="215" as="targetPoint" />
            <Array as="points">
              <mxPoint x="590" y="150" />
            </Array>
          </mxGeometry>
        </mxCell>
        <mxCell id="dyF_wPC1HJIjlOY9AC5u-31" value="" style="endArrow=none;dashed=1;html=1;dashPattern=1 3;strokeWidth=2;rounded=0;entryX=1;entryY=0.5;entryDx=0;entryDy=0;exitX=0;exitY=0.5;exitDx=0;exitDy=0;" edge="1" parent="WIyWlLk6GJQsqaUBKTNV-1" source="dyF_wPC1HJIjlOY9AC5u-6" target="dyF_wPC1HJIjlOY9AC5u-2">
          <mxGeometry width="50" height="50" relative="1" as="geometry">
            <mxPoint x="280" y="170" as="sourcePoint" />
            <mxPoint x="410" y="215" as="targetPoint" />
            <Array as="points">
              <mxPoint x="600" y="260" />
            </Array>
          </mxGeometry>
        </mxCell>
        <mxCell id="dyF_wPC1HJIjlOY9AC5u-48" style="edgeStyle=orthogonalEdgeStyle;rounded=0;orthogonalLoop=1;jettySize=auto;html=1;exitX=1;exitY=0.5;exitDx=0;exitDy=0;entryX=0;entryY=0.5;entryDx=0;entryDy=0;" edge="1" parent="WIyWlLk6GJQsqaUBKTNV-1" source="dyF_wPC1HJIjlOY9AC5u-33" target="dyF_wPC1HJIjlOY9AC5u-47">
          <mxGeometry relative="1" as="geometry" />
        </mxCell>
        <mxCell id="dyF_wPC1HJIjlOY9AC5u-33" value="calibration sur tel type, voie n x avec signaux de calibrations" style="rounded=0;whiteSpace=wrap;html=1;" vertex="1" parent="WIyWlLk6GJQsqaUBKTNV-1">
          <mxGeometry x="950" y="88" width="120" height="60" as="geometry" />
        </mxCell>
        <mxCell id="dyF_wPC1HJIjlOY9AC5u-34" value="Module calibreur" style="text;html=1;align=center;verticalAlign=middle;resizable=0;points=[];autosize=1;strokeColor=none;fillColor=none;" vertex="1" parent="WIyWlLk6GJQsqaUBKTNV-1">
          <mxGeometry x="955" y="-150" width="110" height="30" as="geometry" />
        </mxCell>
        <mxCell id="dyF_wPC1HJIjlOY9AC5u-35" value="Module cible" style="text;html=1;align=center;verticalAlign=middle;resizable=0;points=[];autosize=1;strokeColor=none;fillColor=none;" vertex="1" parent="WIyWlLk6GJQsqaUBKTNV-1">
          <mxGeometry x="1315" y="-150" width="90" height="30" as="geometry" />
        </mxCell>
        <mxCell id="dyF_wPC1HJIjlOY9AC5u-42" value="" style="edgeStyle=orthogonalEdgeStyle;rounded=0;orthogonalLoop=1;jettySize=auto;html=1;" edge="1" parent="WIyWlLk6GJQsqaUBKTNV-1" source="dyF_wPC1HJIjlOY9AC5u-36" target="dyF_wPC1HJIjlOY9AC5u-39">
          <mxGeometry relative="1" as="geometry" />
        </mxCell>
        <mxCell id="dyF_wPC1HJIjlOY9AC5u-36" value="Récupération de donnée&amp;nbsp;&amp;nbsp;" style="rounded=0;whiteSpace=wrap;html=1;" vertex="1" parent="WIyWlLk6GJQsqaUBKTNV-1">
          <mxGeometry x="950" y="190" width="120" height="60" as="geometry" />
        </mxCell>
        <mxCell id="dyF_wPC1HJIjlOY9AC5u-52" value="" style="edgeStyle=orthogonalEdgeStyle;rounded=0;orthogonalLoop=1;jettySize=auto;html=1;" edge="1" parent="WIyWlLk6GJQsqaUBKTNV-1" source="dyF_wPC1HJIjlOY9AC5u-37" target="dyF_wPC1HJIjlOY9AC5u-40">
          <mxGeometry relative="1" as="geometry" />
        </mxCell>
        <mxCell id="dyF_wPC1HJIjlOY9AC5u-37" value="Envoie les donnée" style="rounded=0;whiteSpace=wrap;html=1;" vertex="1" parent="WIyWlLk6GJQsqaUBKTNV-1">
          <mxGeometry x="1300" y="190" width="120" height="60" as="geometry" />
        </mxCell>
        <mxCell id="dyF_wPC1HJIjlOY9AC5u-38" value="" style="shape=flexArrow;endArrow=classic;startArrow=classic;html=1;rounded=0;" edge="1" parent="WIyWlLk6GJQsqaUBKTNV-1">
          <mxGeometry width="100" height="100" relative="1" as="geometry">
            <mxPoint x="1080" y="220" as="sourcePoint" />
            <mxPoint x="1290" y="220" as="targetPoint" />
          </mxGeometry>
        </mxCell>
        <mxCell id="dyF_wPC1HJIjlOY9AC5u-44" style="edgeStyle=orthogonalEdgeStyle;rounded=0;orthogonalLoop=1;jettySize=auto;html=1;exitX=1;exitY=0.5;exitDx=0;exitDy=0;entryX=0;entryY=0.5;entryDx=0;entryDy=0;" edge="1" parent="WIyWlLk6GJQsqaUBKTNV-1" source="dyF_wPC1HJIjlOY9AC5u-39" target="dyF_wPC1HJIjlOY9AC5u-40">
          <mxGeometry relative="1" as="geometry" />
        </mxCell>
        <mxCell id="dyF_wPC1HJIjlOY9AC5u-39" value="Montre les différents gains/offsets et messages d&#39;erreurs" style="rounded=0;whiteSpace=wrap;html=1;" vertex="1" parent="WIyWlLk6GJQsqaUBKTNV-1">
          <mxGeometry x="930" y="280" width="160" height="60" as="geometry" />
        </mxCell>
        <mxCell id="dyF_wPC1HJIjlOY9AC5u-40" value="Sauvegarde des registre&amp;nbsp;" style="rounded=0;whiteSpace=wrap;html=1;" vertex="1" parent="WIyWlLk6GJQsqaUBKTNV-1">
          <mxGeometry x="1300" y="280" width="120" height="60" as="geometry" />
        </mxCell>
        <mxCell id="dyF_wPC1HJIjlOY9AC5u-51" style="edgeStyle=orthogonalEdgeStyle;rounded=0;orthogonalLoop=1;jettySize=auto;html=1;exitX=0;exitY=0.75;exitDx=0;exitDy=0;entryX=0.5;entryY=0;entryDx=0;entryDy=0;" edge="1" parent="WIyWlLk6GJQsqaUBKTNV-1" source="dyF_wPC1HJIjlOY9AC5u-47" target="dyF_wPC1HJIjlOY9AC5u-36">
          <mxGeometry relative="1" as="geometry">
            <Array as="points">
              <mxPoint x="1180" y="133" />
              <mxPoint x="1180" y="170" />
              <mxPoint x="1010" y="170" />
            </Array>
          </mxGeometry>
        </mxCell>
        <mxCell id="dyF_wPC1HJIjlOY9AC5u-47" value="Teste si matériel valide" style="rounded=0;whiteSpace=wrap;html=1;" vertex="1" parent="WIyWlLk6GJQsqaUBKTNV-1">
          <mxGeometry x="1300" y="88" width="120" height="60" as="geometry" />
        </mxCell>
        <mxCell id="dyF_wPC1HJIjlOY9AC5u-55" value="Non" style="text;html=1;align=center;verticalAlign=middle;resizable=0;points=[];autosize=1;strokeColor=none;fillColor=none;" vertex="1" parent="WIyWlLk6GJQsqaUBKTNV-1">
          <mxGeometry x="680" y="-50" width="50" height="30" as="geometry" />
        </mxCell>
        <mxCell id="dyF_wPC1HJIjlOY9AC5u-73" style="edgeStyle=orthogonalEdgeStyle;rounded=0;orthogonalLoop=1;jettySize=auto;html=1;entryX=0.5;entryY=0;entryDx=0;entryDy=0;" edge="1" parent="WIyWlLk6GJQsqaUBKTNV-1" source="dyF_wPC1HJIjlOY9AC5u-65" target="dyF_wPC1HJIjlOY9AC5u-4">
          <mxGeometry relative="1" as="geometry">
            <Array as="points">
              <mxPoint x="720" y="-20" />
            </Array>
          </mxGeometry>
        </mxCell>
        <mxCell id="dyF_wPC1HJIjlOY9AC5u-78" value="" style="edgeStyle=orthogonalEdgeStyle;rounded=0;orthogonalLoop=1;jettySize=auto;html=1;" edge="1" parent="WIyWlLk6GJQsqaUBKTNV-1" source="dyF_wPC1HJIjlOY9AC5u-65" target="dyF_wPC1HJIjlOY9AC5u-77">
          <mxGeometry relative="1" as="geometry" />
        </mxCell>
        <mxCell id="dyF_wPC1HJIjlOY9AC5u-65" value="Param par defaut" style="rhombus;whiteSpace=wrap;html=1;" vertex="1" parent="WIyWlLk6GJQsqaUBKTNV-1">
          <mxGeometry x="460" y="-62" width="80" height="80" as="geometry" />
        </mxCell>
        <mxCell id="dyF_wPC1HJIjlOY9AC5u-84" value="" style="edgeStyle=orthogonalEdgeStyle;rounded=0;orthogonalLoop=1;jettySize=auto;html=1;" edge="1" parent="WIyWlLk6GJQsqaUBKTNV-1" source="dyF_wPC1HJIjlOY9AC5u-74" target="dyF_wPC1HJIjlOY9AC5u-83">
          <mxGeometry relative="1" as="geometry" />
        </mxCell>
        <mxCell id="dyF_wPC1HJIjlOY9AC5u-74" value="Choix des voies" style="whiteSpace=wrap;html=1;" vertex="1" parent="WIyWlLk6GJQsqaUBKTNV-1">
          <mxGeometry x="950" y="-110" width="120" height="60" as="geometry" />
        </mxCell>
        <mxCell id="dyF_wPC1HJIjlOY9AC5u-75" style="edgeStyle=orthogonalEdgeStyle;rounded=0;orthogonalLoop=1;jettySize=auto;html=1;exitX=0.5;exitY=1;exitDx=0;exitDy=0;" edge="1" parent="WIyWlLk6GJQsqaUBKTNV-1" source="dyF_wPC1HJIjlOY9AC5u-74" target="dyF_wPC1HJIjlOY9AC5u-74">
          <mxGeometry relative="1" as="geometry" />
        </mxCell>
        <mxCell id="dyF_wPC1HJIjlOY9AC5u-77" value="Calib par defaut&amp;nbsp;" style="rounded=0;whiteSpace=wrap;html=1;" vertex="1" parent="WIyWlLk6GJQsqaUBKTNV-1">
          <mxGeometry x="440" y="40" width="120" height="60" as="geometry" />
        </mxCell>
        <mxCell id="dyF_wPC1HJIjlOY9AC5u-85" value="" style="edgeStyle=orthogonalEdgeStyle;rounded=0;orthogonalLoop=1;jettySize=auto;html=1;" edge="1" parent="WIyWlLk6GJQsqaUBKTNV-1" source="dyF_wPC1HJIjlOY9AC5u-83" target="dyF_wPC1HJIjlOY9AC5u-33">
          <mxGeometry relative="1" as="geometry" />
        </mxCell>
        <mxCell id="dyF_wPC1HJIjlOY9AC5u-83" value="Test programme par defaut" style="whiteSpace=wrap;html=1;" vertex="1" parent="WIyWlLk6GJQsqaUBKTNV-1">
          <mxGeometry x="950" y="-20" width="120" height="60" as="geometry" />
        </mxCell>
        <mxCell id="dyF_wPC1HJIjlOY9AC5u-86" value="&lt;span style=&quot;color: rgb(0, 0, 0); font-family: Helvetica; font-size: 12px; font-style: normal; font-variant-ligatures: normal; font-variant-caps: normal; font-weight: 400; letter-spacing: normal; orphans: 2; text-align: center; text-indent: 0px; text-transform: none; widows: 2; word-spacing: 0px; -webkit-text-stroke-width: 0px; background-color: rgb(251, 251, 251); text-decoration-thickness: initial; text-decoration-style: initial; text-decoration-color: initial; float: none; display: inline !important;&quot;&gt;Test programme par defaut&lt;/span&gt;" style="text;whiteSpace=wrap;html=1;" vertex="1" parent="WIyWlLk6GJQsqaUBKTNV-1">
          <mxGeometry x="425" y="-140" width="150" height="40" as="geometry" />
        </mxCell>
      </root>
    </mxGraphModel>
  </diagram>
</mxfile>
